<svg width="8.3841in" height="8.3841in" clip-rule="evenodd" fill-rule="evenodd" image-rendering="optimizeQuality" shape-rendering="geometricPrecision" text-rendering="geometricPrecision" version="1.1" viewBox="0 0 8384.1 8384.1" xml:space="preserve" xmlns="http://www.w3.org/2000/svg">
 <defs>
  <style type="text/css">
   <![CDATA[
    .str0 {stroke:#FEFEFE;stroke-width:208.33;stroke-linecap:round;stroke-linejoin:round;stroke-miterlimit:2.61313}
    .fil0 {fill:#0E0E34}
    .fil4 {fill:#36366B}
    .fil2 {fill:#37376C}
    .fil5 {fill:#8C8C8C}
    .fil3 {fill:#D9D9D9}
    .fil1 {fill:white}
   ]]>
  </style>
 <clipPath id="a"><rect x="1307.9" y="48.164" width="8384.1" height="8384.1" fill="#37abc8" stroke="#000" stroke-dasharray="12.14016687, 24.28033385" stroke-opacity=".43137" stroke-width="12.14"/></clipPath></defs>
 <g transform="translate(-1307.9 -48.164)" clip-path="url(#a)">
  
  <rect class="fil0" x="9.88" y="9.26" width="11000" height="8500" fill="#0e0e34"/>
  <path class="fil1 str0" d="m5670.2 948.15c-26.05-26.95-50.74-63.7-78.23-89.54-82.52-77.57-186.06-127.44-295.55-58.37-18.72 11.81-33.35 29.67-49.81 38.61 8.76-32.2 41-53.07 61.15-72.02-85.39-4.52-152.65 38.89-209.55 87.39-20.61 17.57-31.59 36.24-48.83 52.5-73.23-22.42-129.38-4.24-170.65 34.88-17.89 16.95-80.53 105.68-79.09 146.76l3.59-131.31c-67.74 71.01-53.37 79.07-82.54 119.7-26.67-12.75-119.73-118.58-148.28-142.43 1.14 32.57 3.39 67.34 7.22 99.99 6.58 56.13 16.8 47.26 35.75 78.3-55.2-18.31-91.25-47.26-156.78-59.25-57.06-10.44-129.04 19.78-156.78 49.67 62.5-25.03 129.04-10.06 182.17 15.76 42.4 20.6 101.98 68.31 115.7 111.19-83.83-4-125.44-6.53-194.41 31.06-56.15 30.6-101.08 68.32-141.76 91.69 0.81 0.57 2.17 0.24 2.63 1.43 0.46 1.18 2.02 1.1 2.67 1.33 24.14 8.8-17.54-3.97 5.53 2.02 31.22 8.09 72.71-0.21 102.44-8.3 16.4-4.46 33-11.38 47.85-17.85 14.81-6.45 32.83-19.16 47.69-22.02-10.96 34.47-67.15 52.72-69.15 129.09-56.93-1.13-110.42 8.19-158.48 27.39-43.05 17.2-91.4 50.28-111.84 77.22 48.87-9.69 56.7-18.24 113.72-10.48-8.03 16.54-58.13 62.26-74.56 83.37-86.87 111.66-123.81 145-184.23 297.89-30.67 77.62-4.72 35.99-60.41 96.75-72.11 78.67-153.3 196.71-166.49 313.78 15.39-10.7 33.94-38.31 50.06-43.24-3.88 14.4-60.89 107.43-73.3 131.53-22.68 44.04-44.8 96.55-59.12 148.97-41.75 152.74-4.32 228.9-16.96 271.76-8.23 27.92-13.87 58.12-18.43 87.65-18.91 122.5-9.65 254.37 22.34 368.12 27.31 97.11 59.86 255.74 40.01 362.31l35.19-20.46c-5.39 17.06-9.09 24.94-10.17 45.96-2 39.08-26.98 66.06-50.17 125.24-51.42 131.24-39.51 275.53-22.18 414.23 8.82 70.55 10.09 143.54 21.65 212.24 29.6 175.89 105.06 353.66 218.15 483.72 29.8 34.27 80.47 73.23 142.84 90.94 31.65 307.01 91.79 600.28 251.91 855.11 34.95 55.63 21.75 38.89 23.42 112.47l9.76 431.36c1.04 41.43-0.33 43.4-11.55 79.59l-124.22 409.18c-15.81 50.74-14.59 55.97 18.03 92.99 70.18 79.63 142.7 156.43 221.38 228.01 86.06 78.3 178.09 148.83 269.89 219.8 366.93 283.7 764.26 401.98 1213.3 260.92 262.69-82.52 483.18-226.34 656.91-410.07 56.41-59.65 109.76-120.01 159.68-194.77 12.58-18.84 22.55-32.56 34.61-53.02 15.52-26.34 17.49-43.66-0.43-66.61-14.46-18.5-24.95-30.74-38.97-48.7-80.2-102.78-72.81-56.56-73.36-195.83-0.24-59.66-1.12-119.63-0.91-179.23 0.1-29.07 41.94-87.99 57.29-117.62 19.98-38.58 35.48-85.78 60.87-118.19 39.13-51.55 75.26-101.1 112.37-154.38 61.39-87.7 120.09-178.17 174.37-271.33 44.23-75.91 83.89-151.43 123.02-235.07 102.72-219.52 127.5-344.02 120.9-590.2-5.92-220.57-36.04-428.96-69.59-641.06-29.2-184.56-93.24-613.66-78.76-801.83 4.58-59.48 8.78-107.44 4.08-168.12-1.8-23.12-8.38-58.45-7.21-79.37 3.02-53.98 14.5-110.42 13.49-165.49-0.57-31.04-6.71-55.85-8.03-83.92l51.2-52.31 0.87 111c35.4-37.57 104.81-222.22 115.69-290.15 10.28-64.22-4.69-119.83-29.67-168.5-23.15-45.1-56.76-87.46-84.39-117.65 20.01 5.7 118.76 54.93 132.22 66.9l18.24 105.08c17.06-17.52 31.92-114.51 35.23-136.16 13.8-90.35 21.85-208.78-24.83-290.59-18.31-32.08-21.02-14.42-24.43-60.57-1.93-26.17-6.24-54.01-5.97-80.29 9.37 10.21 105.57 156.05 107.21 162.17 4.17-44.67-26.64-128.37-43.37-164.26-37.81-81.12-51.24-54.86-30.95-103.58 5.42-13 9.24-27.78 12.19-42.49 32.66-163.29-40.44-372.98-122.54-505.39-30.55-49.28-51.85-51.84-62.74-98.34-36.37-155.3-191.24-241.18-214.21-267.85l151.8 65.97c-53.28-50.85-112.95-103.87-172.26-147.62-284.07-209.58-366.15-120.48-397.22-135.85-105.23-52.04-235.51-64.06-272.29 57.94-18.41-5.18-40.69-18.47-58.56-27.12-33.65-16.28-60.65-53.51-85.24-81.21-7.61-8.58-13.37-15.4-20.14-21.87-12.92-12.36-14.35-8.78-21.24-25.31 65.96 0.94 131.13 23.67 179.65 47.22-9.47-24.6-41.8-50.64-58.8-66.44-81.18-75.43-203.27-74.89-236.5-92.4-121.49-64.03-268.25-29.9-315.44 78.41-18.33 42.07-11.62 67.19-6.35 111.39zm-546.77 2885.7c-58.43-1.01-113.27 5.39-167.31 19.12-51.27 13.03-143.24 43.41-168.78 82.45 35.13-24.07 130.75-54.54 182.17-65.09 82.42-16.92 140.39-16.7 223.09-8.77-125.09 2.53-173.99 17.08-292.87 70.36-42.18 18.91-81.76 36.85-122.87 56.24l-116.01 59.67c84.71-6.84 212.59-74.65 308.57-83.11 30-2.65 54.05 2.06 116.72 12.79 24.58 4.21 49.75 7.35 75.21 9.46 51.75 4.28 103.96 4.33 155.75 0.47 26.32-1.96 50.64-10.42 71.11 2.09 38.02 23.24 74.93 31.56 127.05 34.86-13.15-13.09-78-38.86-130.6-78.85-32.41-24.64-85.78-62.82-129.37-73.33 62.05 5.32 161.59 50.35 217.94 83.45 20.32 11.94 17.78 11.91 26.4 13.68-12.85-11.99-18.86-18.87-36.71-32.63-45.53-35.11-78.5-48.59-118.45-64.2-67-26.19-137.32-37.21-221.04-38.65zm1206.8 107.29c39.5-24.54 73.22-48.65 120.5-56.84-45.59 25.96-51.08 47.26-69.44 60.23-29.17 20.61-60.69 29.81-72.76 57.37 58.08-14.74 82.96-43.2 152.3-39.27 60.08 3.4 125.22-2.28 184.63-9.2 33.89-3.95 145.11-26.24 166.25-21.02 57.64 14.24 116.41 11.09 157.22-20.95-75.64 4.3-164.62-26.96-244.31-45.32-25.26-5.82-56.98-9.08-80.66-15.72 114.47-15.71 173.14-11.34 275.43 35.64-47.85-83.54-197.63-71.38-277.62-61.17-38.77 4.95-77.9 12-114.53 20.93-84.92 20.69-139.18 34.54-197 95.31z" fill="#fff" stroke="#fefefe" stroke-linecap="round" stroke-linejoin="round" stroke-miterlimit="2.6131" stroke-width="208.33"/>
  <rect class="fil1" x="4788.7" y="3586.1" width="2076.6" height="672" fill="#fff"/>
  
   
    <circle class="fil0" cx="5160.8" cy="3936.9" r="131.37" fill="#0e0e34"/>
    <circle class="fil2" cx="5160.8" cy="3936.9" r="114.38" fill="#37376c"/>
    <circle class="fil0" cx="5160.8" cy="3936.9" r="45.86" fill="#0e0e34"/>
    <path class="fil1" d="m5252.6 3903.2c-3.76 1.55-7.46 3.27-11.29 4.66-10.19 3.69-39.42 11.39-40.42 25.43l-1.19 16.5c13.94-0.31 29.76-1.39 41.29-10.26 14.57-11.22 12.76-20.28 11.6-36.32z" fill="#fff"/>
    <path class="fil1" d="m5142.4 3915.2c-11.4 0.48-37.27 1.71-47.21 5.21-17.16 6.06-17.15 16.7-18.48 32.06 17.96-1.85 33.9 0.17 47.85-12.31 10.41-9.32 11.77-13.14 17.84-24.95z" fill="#fff"/>
   
   
    <circle class="fil0" cx="6587.8" cy="3909.9" r="131.37" fill="#0e0e34"/>
    <circle class="fil2" cx="6587.8" cy="3909.9" r="114.38" fill="#37376c"/>
    <circle class="fil0" cx="6587.8" cy="3909.9" r="45.86" fill="#0e0e34"/>
    <path class="fil1" d="m6680.6 3876c-10.2 3.97-24.57 8.26-33.79 12.79-17.27 8.48-17.2 16.56-20.69 33.63 15.81-0.17 34.52-1.18 46.26-13.58 8.63-9.11 8.59-21.3 8.21-32.84z" fill="#fff"/>
    <path class="fil1" d="m6569.6 3888c-13.08 3.45-45.03 3.37-52.9 8.06-10.28 6.12-11.71 18.9-12.63 29.53 16.5-0.63 33.59-1.19 48-10.42 9.82-6.3 13.44-16.94 17.53-27.16z" fill="#fff"/>
   
  
  <path class="fil1" d="m5670.2 948.15c-26.05-26.95-50.74-63.7-78.23-89.54-82.52-77.57-186.06-127.44-295.55-58.37-18.72 11.81-33.35 29.67-49.81 38.61 8.76-32.2 41-53.07 61.15-72.02-85.39-4.52-152.65 38.89-209.55 87.39-20.61 17.57-31.59 36.24-48.83 52.5-73.23-22.42-129.38-4.24-170.65 34.88-17.89 16.95-80.53 105.68-79.09 146.76l3.59-131.31c-67.74 71.01-53.37 79.07-82.54 119.7-26.67-12.75-119.73-118.58-148.28-142.43 1.14 32.57 3.39 67.34 7.22 99.99 6.58 56.13 16.8 47.26 35.75 78.3-55.2-18.31-91.25-47.26-156.78-59.25-57.06-10.44-129.04 19.78-156.78 49.67 62.5-25.03 129.04-10.06 182.17 15.76 42.4 20.6 101.98 68.31 115.7 111.19-83.83-4-125.44-6.53-194.41 31.06-56.15 30.6-101.08 68.32-141.76 91.69 0.81 0.57 2.17 0.24 2.63 1.43 0.46 1.18 2.02 1.1 2.67 1.33 24.14 8.8-17.54-3.97 5.53 2.02 31.22 8.09 72.71-0.21 102.44-8.3 16.4-4.46 33-11.38 47.85-17.85 14.81-6.45 32.83-19.16 47.69-22.02-10.96 34.47-67.15 52.72-69.15 129.09-56.93-1.13-110.42 8.19-158.48 27.39-43.05 17.2-91.4 50.28-111.84 77.22 48.87-9.69 56.7-18.24 113.72-10.48-8.03 16.54-58.13 62.26-74.56 83.37-86.87 111.66-123.81 145-184.23 297.89-30.67 77.62-4.72 35.99-60.41 96.75-72.11 78.67-153.3 196.71-166.49 313.78 15.39-10.7 33.94-38.31 50.06-43.24-3.88 14.4-60.89 107.43-73.3 131.53-22.68 44.04-44.8 96.55-59.12 148.97-41.75 152.74-4.32 228.9-16.96 271.76-8.23 27.92-13.87 58.12-18.43 87.65-18.91 122.5-9.65 254.37 22.34 368.12 27.31 97.11 59.86 255.74 40.01 362.31l35.19-20.46c-5.39 17.06-9.09 24.94-10.17 45.96-2 39.08-26.98 66.06-50.17 125.24-51.42 131.24-39.51 275.53-22.18 414.23 8.82 70.55 10.09 143.54 21.65 212.24 29.6 175.89 105.06 353.66 218.15 483.72 29.8 34.27 80.47 73.23 142.84 90.94 31.65 307.01 91.79 600.28 251.91 855.11 34.95 55.63 21.75 38.89 23.42 112.47l9.76 431.36c1.04 41.43-0.33 43.4-11.55 79.59l-124.22 409.18c-15.81 50.74-14.59 55.97 18.03 92.99 70.18 79.63 142.7 156.43 221.38 228.01 86.06 78.3 178.09 148.83 269.89 219.8 366.93 283.7 764.26 401.98 1213.3 260.92 262.69-82.52 483.18-226.34 656.91-410.07 56.41-59.65 109.76-120.01 159.68-194.77 12.58-18.84 22.55-32.56 34.61-53.02 15.52-26.34 17.49-43.66-0.43-66.61-14.46-18.5-24.95-30.74-38.97-48.7-80.2-102.78-72.81-56.56-73.36-195.83-0.24-59.66-1.12-119.63-0.91-179.23 0.1-29.07 41.94-87.99 57.29-117.62 19.98-38.58 35.48-85.78 60.87-118.19 39.13-51.55 75.26-101.1 112.37-154.38 61.39-87.7 120.09-178.17 174.37-271.33 44.23-75.91 83.89-151.43 123.02-235.07 102.72-219.52 127.5-344.02 120.9-590.2-5.92-220.57-36.04-428.96-69.59-641.06-29.2-184.56-93.24-613.66-78.76-801.83 4.58-59.48 8.78-107.44 4.08-168.12-1.8-23.12-8.38-58.45-7.21-79.37 3.02-53.98 14.5-110.42 13.49-165.49-0.57-31.04-6.71-55.85-8.03-83.92l51.2-52.31 0.87 111c35.4-37.57 104.81-222.22 115.69-290.15 10.28-64.22-4.69-119.83-29.67-168.5-23.15-45.1-56.76-87.46-84.39-117.65 20.01 5.7 118.76 54.93 132.22 66.9l18.24 105.08c17.06-17.52 31.92-114.51 35.23-136.16 13.8-90.35 21.85-208.78-24.83-290.59-18.31-32.08-21.02-14.42-24.43-60.57-1.93-26.17-6.24-54.01-5.97-80.29 9.37 10.21 105.57 156.05 107.21 162.17 4.17-44.67-26.64-128.37-43.37-164.26-37.81-81.12-51.24-54.86-30.95-103.58 5.42-13 9.24-27.78 12.19-42.49 32.66-163.29-40.44-372.98-122.54-505.39-30.55-49.28-51.85-51.84-62.74-98.34-36.37-155.3-191.24-241.18-214.21-267.85l151.8 65.97c-53.28-50.85-112.95-103.87-172.26-147.62-284.07-209.58-366.15-120.48-397.22-135.85-105.23-52.04-235.51-64.06-272.29 57.94-18.41-5.18-40.69-18.47-58.56-27.12-33.65-16.28-60.65-53.51-85.24-81.21-7.61-8.58-13.37-15.4-20.14-21.87-12.92-12.36-14.35-8.78-21.24-25.31 65.96 0.94 131.13 23.67 179.65 47.22-9.47-24.6-41.8-50.64-58.8-66.44-81.18-75.43-203.27-74.89-236.5-92.4-121.49-64.03-268.25-29.9-315.44 78.41-18.33 42.07-11.62 67.19-6.35 111.39zm-546.77 2885.7c-58.43-1.01-113.27 5.39-167.31 19.12-51.27 13.03-143.24 43.41-168.78 82.45 35.13-24.07 130.75-54.54 182.17-65.09 82.42-16.92 140.39-16.7 223.09-8.77-125.09 2.53-173.99 17.08-292.87 70.36-42.18 18.91-81.76 36.85-122.87 56.24l-116.01 59.67c84.71-6.84 212.59-74.65 308.57-83.11 30-2.65 54.05 2.06 116.72 12.79 24.58 4.21 49.75 7.35 75.21 9.46 51.75 4.28 103.96 4.33 155.75 0.47 26.32-1.96 50.64-10.42 71.11 2.09 38.02 23.24 74.93 31.56 127.05 34.86-13.15-13.09-78-38.86-130.6-78.85-32.41-24.64-85.78-62.82-129.37-73.33 62.05 5.32 161.59 50.35 217.94 83.45 20.32 11.94 17.78 11.91 26.4 13.68-12.85-11.99-18.86-18.87-36.71-32.63-45.53-35.11-78.5-48.59-118.45-64.2-67-26.19-137.32-37.21-221.04-38.65zm1206.8 107.29c39.5-24.54 73.22-48.65 120.5-56.84-45.59 25.96-51.08 47.26-69.44 60.23-29.17 20.61-60.69 29.81-72.76 57.37 58.08-14.74 82.96-43.2 152.3-39.27 60.08 3.4 125.22-2.28 184.63-9.2 33.89-3.95 145.11-26.24 166.25-21.02 57.64 14.24 116.41 11.09 157.22-20.95-75.64 4.3-164.62-26.96-244.31-45.32-25.26-5.82-56.98-9.08-80.66-15.72 114.47-15.71 173.14-11.34 275.43 35.64-47.85-83.54-197.63-71.38-277.62-61.17-38.77 4.95-77.9 12-114.53 20.93-84.92 20.69-139.18 34.54-197 95.31z" fill="#fff"/><g fill="#d9d9d9">
  <path class="fil3" d="m4379.6 5975.7c24.3 38.6 50.7 103.2 72.15 144.63 61.46 118.72 198.62 333.91 291.08 443.24 110.27 130.39 208.35 232.1 347.97 331.56 90.83 64.69 213.99 121.97 320.85 150.66 110.41 29.64 244.68 49.45 365.79 50.82 277.2 3.13 408.43-56.72 615.22-225.63 9.4 123.64 11.4 213.05-13.46 333.47-12.16 58.9-60.35 209.96-94.98 251.81 197.65-129.23 382.19-297.34 446.41-454.83-10.43-20.36-112.62-139.25-118.93-150.84-12.03-22.13-2.44-214.7-6.41-260.55-37.39 37.74-64.7 70.7-104.67 104.24-317.3 266.28-837.72 180.93-1178.4 39-128.08-53.35-291.26-153.67-399.33-236.43-155.92-119.41-372.64-313.28-490.34-463.35-17.83-22.74-35.81-39.75-52.89-57.8z"/>
  <path class="fil3" d="m6422.7 4558.2 8.34 6.96c94.02 114.61 178.66 283.72-8.82 362.89-90.15 38.07-173.84 24.84-193.72 30.07-13.98 3.67-118.8 121.93-277.85 80.19-78.23-20.54-142.61-54.59-207.79-88.28-65.94-34.09-23.24-16.46-107.78 1.85-136.99 29.68-251.01-49.36-250.11-186.25 0.59-88.89 39.41-162.12 72.63-228.55-26.94 7.09-142.01 88.74-169.95 107.83-77.09 52.67-158.53 120.39-226.94 185.88-66.3 63.46-138.33 144.56-183.84 225.41-110.95 197.14-104.26 449.94 99.67 583.28 26.36 17.23 20.68 6.76 25.38 43.57 7.42 58.13 13.55 123.6 25.12 179.91 34.03-34.87 75.19-94.46 105.91-152.39 19.95-37.61 39.48-82.14 47.78-124.2 6.41-32.45-0.58-46.8 13.08-46.24-31.12-19.33-86.31-24.09-128.36-20.76 3.76-21.43 13.35-36.95 23.94-49.76 10.47-12.67 24.87-22.66 41.08-30.43-111.7-122.94 48.67-327.54 133.27-419.92 19.05-20.8 82.57-99.17 104.46-109.2 34.53 32.04 55.19 71.2 129.53 91.56 91.3 25.01 116.17-14.22 186.25-25.27 21.82 28.93 83.09 72.39 120.37 94.84 44.88 27.03 95.71 53.18 156.55 62.62 112.34 17.43 238.13-40.27 291.96-137.09 52.8 8.7 99.52 9.5 147.41-10.26 62.41-25.76 71.73-53.44 95.88-77.41l105.67 408.17c-11.68 14.09-60.67 54.25-79.7 54.75 11.02 11.88 74.3-49.32 139.59 36.56l27.07 38.93c-19.97 4.71-56.78-1.71-79.16-2.43-10.81 17.42-25.39 23.99-30.89 40.26-1.34 3.95-2.51 18.2-3.59 33.22l108.12 43.9c-3.05 44.24-9.74 90.38-14.57 134.75-1.83 16.77-15.28 111.11-11.76 127.06l2.48 6.03c9.67-15.63 22.03-27.41 33.44-43.44 36.45-51.2 58.17-81.23 89.76-140.42 35.5-66.5 65.52-141.6 81.32-225.89 45.31-241.66-105.82-485.64-228.66-668.61-40.69-60.61-82.34-119.78-126.46-176.77l-51.33-65.63c-7.09-10.05-6.73-10.39-15.79-20.71-18.91-21.54-26.7-83.02-34.93-118.69-18.3-79.28-44.88-170.69-57.17-249.19 22.85 7.35 52.39 25.2 76.84 36 144.69 63.86 302.9 90.22 457.75 38.35 72.11-24.15 87.15-50.03 116.06-46.52 14.57 1.76 35.23 3.73 49.12 6.43-29.9-17.21-77.11-30.89-97.18-34.38-42.31-7.36-77.43-3.25-116.76-7.59 9.9-2.99 18.13-7.27 26.99-11.56-28.05-1.84-120.84 4.83-134.85 4.65-84.03-3.11-215.36-24.94-266.45-81.82 106.8-2.18 196.02 10.28 299.83-18.22 25.59-7.02 33.86-16.35 61.07-11.34 60.11 11.06 155.14 32.43 207.39 38.49-8.98-52.8-41.79-78.86-51.28-111.79-13.75 10.75-29.17 21.35-33.77 23.63 6.96 13.62 49.83 44.22 63.06 51.85-49.76-7.74-102.26-32.39-163.17-38.43-63.65-6.31-137.63-1.72-201.37 1.78-107.54 5.89-267.15 12.79-349.24 58.67 0.52-35.82 20.6-61.41 36.48-78.03 17.21-18.09 34.12-32.03 51.6-43.22 28.15-49.36 66.22-94.85 117.72-123.74 132.98-74.6 329.39-87.24 477.87-43.88 77.9 22.74 48.24 21.97 79.25 38.24-15.37-46.08-0.86-104-92-104.69 13.33-9.06-42.59-61.08-25.41-65.09-51.11-1.74-325.11 40.22-389.05 55.92-42.76 10.5-85.44 26.65-125.5 35.85 7.33-12.46 18.06-20.01 28.96-30.22l26.86-31c-15.63 14.24-49.3 33.82-69.44 47.02-21.02 13.78-58.56 47.11-87.93 46.44-8.8-51.1-28.43-61.53-20.26-112.6-41.19 16.38-107.94 115.9-115.88 187.53-15.56 140.19 35.67 515.22 78.98 658.67 37.5 124.22 21.19 245.79-61.81 344.94-147.26 175.91-292.04 9.76-455.14 28-50.3 5.62-202.2 39.68-226.31 68.47 23.06-11.13 70.08-23.67 88.43-23.53l-0.02 0.01c24.17-6.49 49.72-8.74 74.9-9.09 32.62-0.45 63.27 2.68 94.69 7.15 61.67 8.77 158.25 64.44 160.25 69.76 11.48 15.62-7.06 14 29.59 32.43 67.66 34.03 191.73-52.29 260.79-87.57 29.42-15.03 89.17-35.97 121.9-19.23l9.09-1.44c11.32 5.29 22.87 11 34.28 16.45 16.87-18.87 56.75-36.42 74.24-88.65 20.83-62.19-18.1-106.96-27.24-153.16-24.34-41.35-49.9-81.79-60.35-131.54 11.6 9.11 25.31 26.79 39.49 48.88zm109.82 824.17c7.41-1.66 18.7-5.69 33.93-6.37-11.18 0.36-22.62 2.65-33.93 6.37z"/>
  <path class="fil3" d="m5610.6 6755.4c-14.42-7.2-35.39-12.84-53.01-20.04-90-36.81-152.06-83.41-227.57-137.82-103.26-85.29-211.43-176.95-299.57-277.63-165.58-189.13-303.33-360.83-431.85-576.57-67.18-112.77-145.61-271.03-174.37-402.65-54.1-247.65-82.17-420.02-217.03-649.08-24.35-41.36-50.13-62.23-50.41-93.83-2.71-310.39-37.05-713.76-9.64-1000.8h-0.01c-3.81 4.98-7.28 9.02-10.21 11.7-53.52 230.21-75.88 460.84-75.96 710.56-5.15-6.41-10.56-14.64-16.1-24.24-25 29.99-42.4 58.43-51.31 90.96-21.59 78.84 9.83 114.74 13.56 179.06 36.13 22.34 42.97-4.71 45.73 46.07l8.76-261.68c10.28 42.76 8 163.37 9.4 215.13 5.48 204.07-13.59 427.47 18.69 623.38 39.85 241.86 115.2 509.71 232.73 677.63 138.82 198.33 345.76 379.65 530.62 537.67 133.55 113.91 293.24 203.37 450.82 274.63 0.78 0.22 5.12-0.19 5.9 0.03-78.44-73.11-143.17-121.74-187.97-226.78 91.81 110.48 208.5 193.34 338.38 253.71 28.04 13.03 120.06 51.07 150.42 50.57z"/>
  <path class="fil3" d="m6243.9 2327.9c60.86 1.06 144.02 152.54 166.68 197.26 170.3 336.12 156.58 547.62 208.42 876.52 60.47-2.72 260.25 5.41 294.2 59.38 17.99 2.63 32.99 6.39 41.43 11.74l-33.53 4.78c80.63 11.87 143.6 61.49 181.12 127.54 2 2.13 4.11 4.1 6.37 5.86-2.63-27.35 4.65-55.61 2.83-83.94-4.35-67.97-17.14-161.53-27.54-228.12-7.79-49.87-16.39-96.34-26.16-145.71-10.6-53.57-20.46-100.58-32.26-145.35l1.13 4.32c-6.31-6.92-44.02-99.24-51.69-115.94-43.56-94.84-115.91-219.04-175.06-299.85-69.69-95.24-135.16-174.66-209.01-265.92-23.68-29.26-53.61-54.99-74.49-82.22-31.17 10.75-39.46 27.87-123.86 52.35-45.03 13.06-96.21 21.82-148.58 27.3z"/>
  <path class="fil3" d="m4946.1 4118.6 211.64 63.93c-33.99 3.7-224.4-32.63-302.33-20.65-22.58 3.47-69.77 12.79-81.74 28.25 158.75-41.43 263.13 28.62 496.04 16.35 36.95-1.94 133.87-18.45 158.42-16.07-48.25 8.17-82.6 22.85-118.74 36.46 40.41-5.77 165.33-37.68 204.51-49.81l129.7-46.09 132.26 293.83c2.09-77.92-16.57-194.41-23.96-276.59-21.95-244.19-27.77-143.44 28.43-245.55 40.99-74.47 55.55-149.77 39.93-246.39-8-49.48-46.54-203.18-68.63-232.37l-40.84 171.77c-5.56 23.42-9.31 45.09-18.47 54.37 17.06 35.34 21.46 66.35 12.01 144.33-94.43-9.58-153.45-35.15-221.11-75.22 19.18 20.29 29.37 20.89 37.3 39.25-341.87 18.04-450.37-137.62-642.39-63.86-4.41 2.29-10.65 5.35-17.61 8.58 82.98-15.07 240.66 55.77 284.07 127.86-61.58-0.81-122.39-2.85-183.18 5.29-96.75 12.94-204.01 48.32-285.5 94.7-18.61 10.59-97.81 58.28-109.52 79.37 12.83 1.63 25.48 2.61 38.39 2.25 14.5-0.56 28.85-2.67 42.11-6.42l1.54-0.44c31.01-9.13 38.15-17.19 58.18-33.14 31.41-25.04 71.9-47.56 113.24-66.88l1.32-0.34c38.33-23.91 95.37-42.23 132.65-51.85l2.3-0.6c54.04-13.73 108.88-20.13 167.31-19.12l4.83 0.09c46.67 1 85.22 4.72 120.24 11.43 33.36 6.18 65.02 15.04 95.97 27.13 25.68 10.04 48.47 19.19 73.57 33.77l2.96 1.44c37.27 16.16 136.53 88.54 162.79 130.72-59.86-2.13-111.41-10.95-156.92-25.63-16.83-5.43-54.17-22.54-68.76-21.4-25.24 1.98-47.71 9.11-77.41 10.04-56.96 1.8-113.84-5.23-168.8-12.81-20.53-2.83-61.1-14.31-96.32-22.54-17.62-2.19-31.15-2.72-46.17-1.39-28.85 2.54-60.58 10.45-93.15 20.45-27.43 14.63-50.27 23.07-79.56 33.71-90.5 32.91-159.39 48.17-238.95 6.27-8.78 15.95-41.78 26.45-46.67 44.59 100.83 14.76 233.96-19.57 331.08-49.28 156.76-47.97 47.52-25.44 192.57 4.68 35.93 7.46 73.78 12.74 112.2 16.16 105.48 9.38 178.61 0.19 249.98 4.69-98.55 106.46-300.56 83.8-435.6 64.26 13.72 4.62 25.71 9.75 35.01 15.27l0.4 0.23c-17.4-2.58-34.22-4.97-50.59-7.06z"/>
  <path class="fil3" d="m5736.2 5939.9c55.88 15.44 130.36 84.87 247.64 99.49-4.94 19.01-84.73 61.58-116.4 72.94-62.15 22.3-96.74 20.93-162.28 9.84 39.06 39.96 152.78 67.38 225.63 72.18 50.28 3.31 99.61-1.82 149.97-1.02 151.74 2.43 252.95 23.32 371-77.73 29.94-25.63 100.69-123.64 115.16-180.79l-156.25 35.08c47.64-71.68 86.86-136.39 104.28-244.09l-0.02 0.01c-37.86 65.09-91.58 116.42-160.95 156.88-42.45 24.76-170.43 74.99-228.44 72.93 152.5-79.16 270.58-131.99 337.46-312.11-83.44 47.11-159.94 87.3-268.59 112.81-222.51 52.25-449.27 26.46-664.94-44.49-51.37-16.9-93.96-32.63-141.03-52.89-48.17-20.73-99.81-52.91-124.77-63.44 25.63 46.46 85.5 113.22 99.01 154.81 48.2 52.18 300.32 169.36 373.52 189.58zm310.33-108.37c-164.12 21.96-181.07 85.87-394.41 26.86-162.69-45-175.06-89.05-290.44-180.2 58.57 55.01 225.64 100.19 301.96 114.95 131.09 25.35 247.61 32.26 382.89 38.39z"/>
  <path class="fil3" d="m7089.5 5081.2c17.68 32.3-2.65 168.09-12.5 205.42-13.53 51.3-50.06 127.43-78.77 151.33-13.74 35.11-23.09 87.33-37.26 127.29-81.54 229.87-143.91 374.93-255.34 592.34-17.14 33.44-44.31 76.02-57.65 110.41-16.89 43.56-30.99 77.35-52.16 115.87-130.25 237.04-362.62 350.55-635.77 380.18-144.34 15.66-187.3 5.96-321.11-1.91 72.14 32.51 237.59 37.7 322.7 34.51 168.22-6.31 306.99-33.6 462.26-103.36 1.94-0.73 4.34-1.8 7.11-3.17 35.15-24.36 68.82-51.48 96.94-81.84 26.72-28.85 57.12-64.58 82.96-103.3 62.02-92.93 57.54-106.36 96.16-185.28 9.17-18.74 122.05-163.77 155.35-217.35 159.37-256.43 347.68-517.44 388.08-825.29 25.35-193.16-4.54-454.34-38.17-680.54-1.5-4.02-2.89-6.91-4.13-8.43l9.19 252.05c-54.07 22.46-102.41 174.15-127.88 241.05z"/>
  </g><path class="fil4" d="m5646.2 3567c-4.67 6.32 25.56 70.86 25.62 110.64-57.32-38.13-199.47-195.98-280.13-163.59 16.63 7.2 31.56 21.88 45.2 33.65-121.89-26.46-68.51-41.21-256.91-55.52-390.93-29.69-409.52 29.67-700.4 236.79l33.33 4.97c-14.28 15.57-45.35 20.65-70.64 22.63 27.83 23.48 152.94 39.37 185.98 38.13 52.95-2 79.5-17.22 124.48-38.89 17.29-8.33 27.87-10.57 37.22-23l-37.85-6.33c20.78-3.29 40.51-3.35 60.65-5.68 14.17-1.63 50.31-18.42 65.33-26.21 192.01-73.76 300.52 81.91 642.39 63.86-7.93-18.36-18.12-18.96-37.3-39.25 67.66 40.07 126.69 65.64 221.11 75.22 15.32-126.37-5.74-129.36-58.09-227.41z" fill="#36366b"/>
  <path class="fil4" d="m7117.8 3876.7c11.79-51.39 26.19-81.07 22.61-141.39-7.38-124.23-91-238.81-219.37-257.7l33.53-4.78c-32.68-20.69-163.57-17.82-186.93-16.31-49.22 3.18-207.7 23.62-248.91 40.96-19.31 8.12-57.74 48.87-82.73 63.24l45.8-69.67c-107 10.72-131.79 120.3-152.87 145.96l3.48-93.52c-43.03 69.74-44.84 135.14-30.9 216.09 66.79 1.51 117.36-18.37 166.85-63.47-13.33 15.39-48.2 48.25-55.82 61.22 154.95-35.58 398.4-113.06 544.54-108.09-17.18 4.02-45.48 11.3-58.8 20.36 140.18 32.99 157.2 113.06 219.53 207.1z" fill="#36366b"/>
  <path class="fil5" d="m5134.3 2595.2c61.54 57.7 352.92 57.62 433.85 20.46-174.48-8.4-334.88-19.7-478.89-128.42-34.7-26.2-80.53-61.52-101.88-103 30.18 10.69 121.15 60.74 188.6 85.67 82.52 30.5 151.62 51.83 221.91 63.51 74.43 12.37 150.2 13.92 244.63 4.06 61.78-6.45 181.98-22.4 215.44-59.26-148.75 6.39-212.07 23.07-374.19-5.74-81.58-14.5-221.67-61.34-272.13-127.91 104.75 26.1 201.85 47.92 272.88-25.57l0.04 71.22c16.13-8.48 47.65-29.96 60.97-41.27l-16.71 65.57c114.61-87.76 366.57-83.52 518.99-79.54 107.56 2.81 242.07-4.65 344.63-34.39 84.4-24.48 92.69-41.6 123.86-52.35 20.88 27.23 50.81 52.96 74.49 82.22 73.85 91.26 139.32 170.68 209.01 265.92 59.14 80.8 131.5 205.01 175.06 299.85 7.67 16.7 45.37 109.02 51.69 115.94-20.54-78.98-46.84-150.6-93.62-238.36-57.87-108.55-118.93-205.23-186.07-303.6-11.21-16.43-21.51-28.47-33.86-46.42l-176.69-236.34c-24.52 5.37-68.07 30.91-98.22 42-351.99 129.53-636.33 1.42-845.75 123.52l13.59-57.76c-29.7 4.82-41.62 7.59-71.21-1.39-36.72-11.14-25.56-23.06-53.34-1.74-92.2 70.75-228.82 38.46-330.31 1.85-19.98-7.22-41.91-18.44-59.73-23.2 34.71 52.26 137.4 121.63 220.11 155.11 96.68 39.13 158.21 56.65 249.22 67.65 29.79 2.74 53.59 4.71 56.68 5.77-207.43 11.85-512.24-73.54-693.28-182.96-18.11-10.95-66.7-45.09-80.08-49.49 7.94 17.18 40.96 56.25 52.99 69.28 68.12 73.83 96.85 107.8 191.85 173.51 98.59 68.19 218.03 114.21 365.46 121.35-95.11 3.01-144.57 3.27-240.73-16.04-25.95-5.21-52.48-11.81-79.23-19.69z" fill="#8c8c8c"/>
  <path class="fil3" d="m6226.9 5317c-19.11-6.26-31.78-2.75-51.14-2.67-60.36 0.28-101.3 9.84-128.24 10.42-18.9 0.4-57.79-9.33-82.15-10.67-101.16-5.54-172.71-4.81-275.65 5.79-14.87 1.53-144.17 23.38-158.14 33.69-4.31 9.85-17.75 17.59-25.97 24.45-9.69 8.09-18.59 15.19-28.09 22.57 48.94 22.89 375.32 40.34 450 42.91 97.49 3.35 342.28-17.59 422.51-66.59-38.58-19.4-86.33-46.38-134.02-56.74l10.9-3.17z" fill="#d9d9d9"/>
  <path class="fil5" d="m5429.8 4756.3 7.83-20.93c9.03-43.97 23.43-85.22 40.17-127.27 19.61-49.24 47.78-92.53 32.5-152.43-11.7 13.18-45.76 63.2-52.65 81.41-33.21 66.43-72.04 139.65-72.63 228.55-0.9 136.89 113.12 215.93 250.11 186.25 84.54-18.31 41.83-35.94 107.78-1.85 65.18 33.69 129.56 67.75 207.79 88.28 159.04 41.74 263.87-76.52 277.85-80.19 19.89-5.22 103.57 8 193.72-30.07 187.48-79.17 102.83-248.28 8.82-362.89l-9.91-8.27c-29.62-39.31-34.43-1.49 0 0 2.6 22.24 82.52 138.57 91.85 212.94 11.5 91.68-90.17 142.26-152.23 152.35 40.79-23.62 191.43-54.74 132.94-192.23-5.04-15.68-11.68-28.22-18.49-41.94-5.49-11.06-22.19-39.05-31.64-47.17 9.13 46.2 48.07 90.98 27.24 153.17-17.5 52.24-57.37 69.78-74.24 88.65-11.4-5.46-22.96-11.17-34.28-16.45-0.57 0.81-11.58 5.22-11.91 6.56-2.72 11.26-74.92 36.98-83.04 40.21-22.72 9.06-35.19 12.76-58.04 18.83-16.94 4.5-35.21 25.59-47.44 36.94-47.39 44.91-129.41 92.4-203.24 34.59 62.41 24.52 125.19 21.77 203.82-46.98 45.33-37.65 104.95-71.46 191.5-88.33-32.55-17.45-93 3.7-122.64 18.85-69.06 35.29-193.13 121.61-260.79 87.57-36.65-18.43-18.12-16.81-29.59-32.43-6.84 6.26-17.38 5.83-25.87 4.19-88.62-17.22-91.57-30.58-141.68-45.65-45.28-13.62-148.41-13.04-200.22-11.64l37.95-14.72c-20.72-0.15-77.96 15.84-96.04 27.73-16-4.44-25.89-12.19-38.01-14.96-10.73 2.61-51.06-41.23 6.83 11.38l25.73 18.33c12.92 8.3 27.43 12.94 38.19 20.77-80.98-4.9-141.36-89.85-131.3-181.21 13.28-91.36 45.46-151.13 74.52-230.57-10.96 42.85-65.78 139.38-61.26 230.63z" fill="#8c8c8c"/>
  <path class="fil3" d="m4621.4 5583.3c-22.75-45.91-41.04-123.27-44.09-181.94-1.9-36.5 0.9-62.53 6.3-85.55 6.18-36.4 16.47-73.74 29.97-103.17-6.1-36.72 13.36-175.77 17.12-206.91-17.01 8.17-26.61 25.2-38.65 39.81-86.22 104.48-159.29 222.4-123.54 371.14 33.42 139.04 112.3 249.98 188.81 362.98 2.86 4.22 5.42 8.43 7.33 10.94l9.8 10.68c-6.96-61.61-23.23-132.46-32.46-196.32-4.76-32.88-9.73-68.01-12.61-101.09-2.44-28 0.3-65.87-1.61-94.93 0.01 63.95-1.4 126.07-6.37 174.37z" fill="#d9d9d9"/><g fill="#8c8c8c">
  <path class="fil5" d="m3862.1 4561.7c-17.01-33.37-54-122.11-49.73-164.21-13.07-21.85-14.15-67.46-8.86-120.71v-0.01c8.88-83.46 30.61-198.09 61-276.58 1.41-3.64 5.3-13.1 10.41-24.52-19.47-19.98-38.51-50.93-49.53-75-13.65-29.82-23.96-64.28-31.47-99.3-12.56 35.98-79.35 116.76-53.46 239.13 4 18.92 10.32 38.74 18.29 54.67 15.69 31.36 13.27 19.86 6.71 57.84-27.69 160.36-17.7 362.5 103.07 475.36 12.38 11.57 58.71 49.07 75.41 56.55 7.26 3.25 8.35 3.83 12.1 4.45-2.03-3.2-86.25-112.56-93.94-127.67z"/>
  <path class="fil5" d="m4136.9 3608.8c17.45-15.96 54.07-80.16 66.35-102.8 78.51-144.69 91.92-212.76 62.9-375.27 27.34-9.16 46.32-40.43 56.45-79.08 17.81-67.94-9.62-55.52 40.93-97.77 79.83-66.71 77.38-78.72 135.97-138.04 79.28-80.25 115.75-164.78 130.87-281.97 2.94-22.82 5.53-113.68 10.54-126.98-1.02-5.48-2.14-11.17-3.49-17.14-15.12 29.08-19.44 176.49-105.94 333.76-49.17 89.38-118.56 176.33-221.19 213.57-7.63 49.83-7.8 71.24-30.56 112.02-30.61 54.82-49.39 64.28-59.41 79.91 12.2 52.84 24.35 71.19 21.83 135.29-4.93 125.67-57.44 236.23-133.08 330.96 10.3-5.4 23.69-14.33 35.96-18.84-2.83 14.26-4.41 21.59-8.13 32.39z"/>
  <path class="fil5" d="m4007.1 4565.1c-3.73-64.31-35.15-100.22-13.56-179.06 8.91-32.53 26.3-60.96 51.31-90.96-23.81-41.28-50.02-108.02-68.65-165.85v-0.01c-3.05 30.05-104.59 128.39-102.54 244.14 1.98 112.58 65.27 133.63 133.45 191.73z"/>
  <path class="fil5" d="m5309.2 6677.4 3.57 1.88c7.77 3.47 15.56 6.88 23.38 10.24 165.7 71.07 342.31 115.86 525.86 128.66 168.84 11.78 363.28-5.02 511.07-90.75 19.3-11.68 38.82-24.1 57.91-37.33-2.76 1.36-5.16 2.43-7.09 3.16-155.28 69.76-294.05 97.05-462.26 103.36-85.11 3.19-250.56-2-322.7-34.51-6.81-1.25-22.19-4.06-28.32-6.67-30.36 0.5-122.38-37.54-150.42-50.57-129.88-60.37-246.57-143.23-338.38-253.71 44.7 104.78 109.21 153.42 187.39 226.24z"/>
  <path class="fil5" d="m4910.6 5430.5c4.49-104.82 97.24-250.57 151.63-342.5 19.48-27.37 206.09-280.07 203.57-289.67-12.92 15.8-36.37 37.72-55.25 58.07-45.89 49.46-93.93 95.39-138.88 146.1-79 85.65-197.79 183.62-197.79 307.48 0 42.91 13.26 96.67 36.72 120.51z"/>
  <path class="fil5" d="m4773.7 4190.2-44.22 16.52c57.87 11.74 109.59-3.61 168.96 16.65 48.79 16.65 100.66 22.77 154.11 29.05 218.14 25.62 249.1-40.53 375.59-61.94-24.55-2.38-121.46 14.13-158.42 16.07-232.91 12.26-337.29-57.79-496.04-16.35z"/>
  <path class="fil5" d="m6293.7 4019.1c82.09-45.87 241.7-52.77 349.24-58.67 63.75-3.5 137.72-8.08 201.37-1.78 60.91 6.04 113.41 30.69 163.17 38.43-13.23-7.63-56.1-38.23-63.06-51.85 8.69-4.3 55.92-38.27 57.72-46.89l-46.16 5.71c-9.63-24.11-48.05-50.04-78.31-58.72l0.05 0.05c17.26 9.98 31.66 23.21 41.63 40.61-102.29-46.98-160.96-51.35-275.43-35.64 23.68 6.64 55.39 9.89 80.66 15.72 79.69 18.36 168.67 49.62 244.31 45.32-40.81 32.04-99.57 35.19-157.22 20.95-21.14-5.22-132.35 17.07-166.25 21.02-59.41 6.92-124.54 12.59-184.63 9.2-69.34-3.93-94.22 24.54-152.3 39.27 12.07-27.56 43.59-36.76 72.76-57.37 18.36-12.97 23.85-34.28 69.44-60.23-47.28 8.19-81 32.3-120.5 56.84-15.87 16.62-35.96 42.21-36.48 78.03z"/>
  </g><path class="fil3" d="m3943.9 4684.9c-16.69-7.52-63.03-44.98-75.41-56.55-120.78-112.86-130.76-315-103.07-475.36 6.56-37.98 8.98-26.48-6.71-57.84-7.97-15.93-14.29-35.74-18.29-54.67-25.28-119.5 39.33-198.85 54.14-235.98-2.93-13.35-5.45-26.81-7.59-40.14-1.6 27.32-35.08 56.91-59.61 113.28-37.41 85.94-34.76 193.55 8.07 277.52 14.03 27.5 5.57 30.38 1.23 64.32-16.47 128.8 1.55 246.58 63.88 348.97 32.76 53.81 112.47 139.07 186.29 152.95-25.38-25.57-30.43-31.6-30.8-32.04-2.42-2.8 2.26 0.89-12.1-4.45z" fill="#d9d9d9"/>
  <path class="fil5" d="m4819.8 3905.7c-41.33 19.31-81.82 41.83-113.24 66.88-20.02 15.96-27.17 24.01-58.18 33.14-44.51 13.11-81.53 4.86-125.34-2.09 95.08 67.33 170.25 52.76 273.61 15.18 29.29-10.65 52.13-19.09 79.57-33.71-75.8 23.27-156.17 57.88-215.43 62.66l116.01-59.67c41.11-19.38 80.69-37.33 122.87-56.24 118.88-53.28 167.78-67.83 292.87-70.36-82.7-7.93-140.67-8.15-223.09 8.77-51.42 10.56-147.04 41.02-182.17 65.09 6.67-10.19 17.85-19.78 31.66-28.64l0.83-1.02z" fill="#8c8c8c"/>
  <path class="fil5" d="m4660.5 2471.4c12.06 43.73 53.91 81.54 112.04 88.19 62.75 7.18 118.46-24.17 147.51-53.93-56.45-31.23-109.28-67.44-154.59-107.51-16.43-14.53-35.52-33.68-50.76-44.09-7.17 52.64-10.85 95.96 19.76 133.54 29.91 36.74 52.42 37.88 106.45 54.88-88.2 12.61-122.68 1.54-171.11-58.28-3.44-4.25-6.39-8.43-8.93-12.58-0.17-0.03-0.29-0.09-0.37-0.21z" fill="#8c8c8c"/>
  <path class="fil3" d="m6108.8 3796.7-61.26-254.47c-18.96-87.21-38.41-187.57-44.52-279.1-15.08 40.19-12.78 261.98-6.76 315.42 8.93 79.33 61.13 179.26 112.54 218.15z" fill="#d9d9d9"/><g fill="#8c8c8c">
  <path class="fil5" d="m4952.4 3966.7c26.61-3.34 124.79 17.09 159.49 21.87 54.96 7.58 111.84 14.61 168.8 12.81 29.7-0.94 52.17-8.06 77.41-10.04 14.6-1.14 51.94 15.97 68.76 21.4 45.51 14.69 97.06 23.5 156.92 25.63-19.83-48.92-122.46-122.63-166.02-132.31 14.03 8.13 28.78 17.96 45.15 30.58 17.85 13.77 23.87 20.65 36.71 32.63-8.62-1.77-6.08-1.74-26.4-13.68-56.35-33.1-155.89-78.13-217.94-83.45 43.58 10.51 96.96 48.69 129.37 73.33 52.59 39.99 117.44 65.76 130.6 78.85-52.11-3.3-89.02-11.63-127.05-34.86-20.47-12.51-44.78-4.06-71.11-2.09l-1.23 0.09-1.2 0.09h-0.03l-1.23 0.09-1.17 0.08h-0.07l-1.23 0.09-1.13 0.07-0.11 0.01-1.24 0.08-1.07 0.07-0.17 0.01-1.24 0.08-1.02 0.07-0.22 0.01-1.24 0.08-2.5 0.14c-46.54 2.74-93.2 2.28-139.65-1.54-25.25-2.12-50.08-5.19-75.21-9.46-62.68-10.73-86.72-15.44-116.72-12.79-5.56 0.49-11.24 1.19-17 2.06z"/>
  <path class="fil5" d="m6772.3 5086.2c-35.54-52.46-80.67-105.02-124-150.01-14.35-14.91-26.81-28.59-43.55-41.4 5.27 8.7 11.39 15.92 17.02 23.96 39.22 56.04 84.5 126.67 117.6 185.8 38.99 69.67 86.12 158.43 95.91 251.61 50.33-71.31-31.98-224.22-62.98-269.96z"/>
  <path class="fil5" d="m4577.3 5401.3c3.06 58.67 21.34 136.03 44.09 181.94 10.99-106.59 4.57-280.57 3.95-392.84-32.3 51.94-51.17 150.67-48.04 210.9z"/>
  <path class="fil5" d="m7089.5 5081.2-91.27 356.75c28.71-23.91 65.24-100.03 78.77-151.33 9.84-37.33 30.17-173.11 12.5-205.42z"/>
  </g><path class="fil3" d="m6041.8 5712.7-1.93-192.97-26.9 74.45c-9.4-43.08-22.17-60.13-29-76.56l-2.76 200.3c-0.02 1.76-0.64 2.35-1.72 3.31 12.62-4.44 25.2-9.6 40.98-15.19 6.32 2.21 13.59 4.53 21.35 6.67z" fill="#d9d9d9"/>
  <path class="fil5" d="m6497.6 4138c40.91 30.06 140.03 60.25 204.39 60.36 37.2 0.06 76.92-4.4 113.07-9.96 16.74-2.58 92.61-20.04 96.5-19.37-7.67-1.03-153.59 2.55-216.93-2.62-80.94-6.6-152.52-24.59-197.03-28.4z" fill="#8c8c8c"/>
  <path class="fil3" d="m5799.3 5704.2c-1.69-7.53-2.78-15.61-2.86-17.74l-5.66-138.5c-4.8 9.67-6.57 22.89-10.72 35.49-11.24-27.14-21.05-70.04-32.74-99.31l-5.67 207.8c-0.35 0.97-0.91 1.97-1.28 2.82-0.26 0.61-0.76 1.41-1.14 2.06 10.52-4.37 22.11-10.23 35.25-17.68 8.74 9.79 16.93 18.08 24.8 25.06z" fill="#d9d9d9"/>
  <path class="fil3" d="m5631.6 5680.5c-7.03-12.28-9.48-9.91-12-34.02-3.44-32.91-8.98-96.09-6.12-125.27-0.43 0.48-0.82 0.82-1.18 1.03-6.4 14.72-12 25.61-13.9 28.57-3.67-20.75-26.93-59.02-36.79-81.51l-0.04-0.04 5.82 149.15c0.42 11.62 2.92 26.59-0.72 37.24l-4.78 9.26c10.09-4.07 19.87-9.55 29.2-14.31 15.43 11.65 28.61 21.67 40.51 29.91z" fill="#d9d9d9"/>
  <path class="fil5" d="m4996.7 4125.7c-49.61-29.73-177.22-48.27-235.63-36.4-57.89 11.76-122.68 50.76-148.4 83.15 137.53-76.96 241.32-67.91 384.03-46.75z" fill="#8c8c8c"/>
  <path class="fil0" d="m5491 4525.7c-35.99 78.58-97.69 190.57-82.39 279.61 12.29 71.52 71.78 128.09 139.16 132.17-83.48-67.07-99.14-55.27-111.78-134.28-19.28-120.5 26.31-165.34 55-277.5zm995.32 203.76c43.63 135.83-89.95 168.55-125.57 192.75 62.06-10.09 166.56-60.86 158.28-152.88-3.36-37.44-87.76-222.23-135.83-259.99 17.54 83.49 77.62 140.76 103.12 220.12zm-124.05 136.78c-82.89 12.96-141.37 25.68-208.66 85.55-78.63 68.75-112.72 72.43-201.19 48.43 64.56 60.02 165.68 20.89 214.42-24.33 12.24-11.35 24.45-31.38 41.39-35.89 22.86-6.07 37.44-7.14 60.15-16.2 22.28-8.89 80.97-39.13 93.89-57.57zm-789.14 22.71c51.8-1.4 154.94-1.98 200.22 11.64 50.11 15.07 53.06 28.43 141.68 45.65 8.54 1.66 19.05 2.06 25.87-4.19-2-5.32-98.58-60.99-160.25-69.76-31.42-4.47-62.06-7.6-94.69-7.15-38.88 0.54-78.61 5.61-112.83 23.8z" fill="#0e0e34"/>
  <path class="fil3" d="m5420.9 5481.1c5.18 34.09 15.33 115.88 11.79 142.37 7.27-1.47 16.41-4.84 31.03-9.99 5.95 12.07 11.43 23.79 19.72 30.88 2.96 2.53 5.07 4.53 6.74 6.19-0.47-26.44-5.65-65.52-9.13-91.63-3.92-29.43-6.52-60.16-9.09-90.06-3.49 14.17-11.08 32.07-13 71.41-12.09-18.53-28.04-38.35-38.06-59.18z" fill="#d9d9d9"/>
  <path class="fil3" d="m5308.3 5445.4c-15.37 2.27-47.19 7.07-58.52 13.01 2.82 19.64 20.61 60.57 30 76.1 14.04 23.22 32.85 29.53 64.18 23.12 5.83 17.13 8.4 23.51 18.92 30.93-2.46-30.17-28.13-110.85-6.71-132.89l-9.57-0.07-8.75 30.72c-4.41-11.37-21.86-23.74-29.55-40.91z" fill="#d9d9d9"/>
  <path class="fil5" d="m6835.5 4113.2c39.33 4.33 74.44 0.22 116.76 7.59 27.46 4.78 105.79 28.64 120.97 54.52-5.31-27.38-53.12-64.31-83.88-77-20.49-8.45-43.34-13.36-68.13-12.14-45.07 2.22-59.59 19.14-85.72 27.03z" fill="#8c8c8c"/>
  <path class="fil3" d="m6204.1 5526.4c1.07 42.3 11.6 127.07 4.74 159.61 6.09-3.97 11.5-8.29 16.04-12.96 5.45 0.53 11.68 0.74 18.29 0.53l-5.09-168.31c-9.02 15.56-7.2 26.61-12.96 63.33-7.74-13.94-14.59-27.97-21.03-42.2z" fill="#d9d9d9"/>
  <path class="fil5" d="m3904.4 3924.6c-6.28-23.88-7.5-60.76 1.8-133.36-56.87 45.58-43.14 108.23-24.71 169.97 7.11-15 15.25-30.59 22.11-39.84 0.26 1.1 0.52 2.18 0.8 3.23z" fill="#8c8c8c"/><g fill="#d9d9d9">
  <path class="fil3" d="m6321.4 5500.6-0.07 133.85c3.35-6.13 6.63-12.92 11.2-20.5 11.73 9.08 22.07 11.14 31.21 8.22l-8.72-1.72c-0.89-30.82-7.7-117.56 1.96-143.47-17.36 17.34-13.61 21.31-25.87 53.81-2.8-9.96-5.76-21.04-9.72-30.19z"/>
  <path class="fil3" d="m5308.2 3974.5 4.39-28.44c16.88 3.52 26.44 7.48 31.89 23.46l0.38-0.09c7.94-1.83 15.12-4.43 19.62-8.31-23.38-24.67-48.76-42.3-75.8-54.24 2.24 9.63 3.43 19.66 3.43 29.96 0 13.67-2.09 26.84-5.96 39.23 7.11-0.43 14.43-0.95 22.04-1.58z"/>
  <path class="fil3" d="m6456.6 3902.8-0.85-6.53c-12.77 8.51-22.48 15.1-35.31 26.7-10.14 9.17-17.64 15.7-17.05 32.9l59.48-5.21c-4.19-12.83-6.46-26.54-6.46-40.77 0-2.38 0.06-4.74 0.19-7.09z"/>
  </g><path class="fil5" d="m6303.8 5481.6c15 2.69 21.52 28.43 27.38 49.25 13.34-35.37 7.72-36.95 30.99-58.74-19.53 3.4-39.01 6.81-58.37 9.49zm-1e3 -22.61c7.91 17.22 32.07 45.51 36.45 56.78l6.28-59.26c-15.51 0.48-30.09 1.26-42.73 2.48zm155.22 81.3c2.46-50.46 14.26-65.66 14.76-82.92-17.86-0.56-39.15-1.09-61.3-1.33 5.34 30.1 29.69 58.41 46.54 84.25zm139.46 10.54c3.93-6.12 23.7-46.19 33.61-83.86-24.5-2.34-49.03-4.4-73.62-5.95 6.3 19.93 35.84 66.21 40.01 89.81zm181.66 32.69c13.1-39.82 14.78-60.52 37.25-96.59-28.72-2.81-43.43-4.6-72.1-7.82 12.63 29.18 22.94 75.65 34.85 104.41zm232.85 10.67 34.41-95.24 0.26-0.22c-23.12 0.17-45.87-0.06-68.37-0.69 1.44 26.89 20.77 36.89 33.7 96.16zm176.64-101.39c10.82 25.95 21.78 51.01 35.54 75.81 7.64-48.74 1.93-52.24 25.93-81.11-20.92 2.06-41.39 3.82-61.47 5.3z" fill="#8c8c8c"/>
  <path class="fil3" d="m6718.1 3926.7 2.08-0.34 48.88-10.41c-11.73-11.13-30.44-20.69-51.83-28.59 1.27 7.33 1.93 14.86 1.93 22.55 0 5.69-0.36 11.29-1.06 16.79z" fill="#d9d9d9"/>
  <path class="fil3" d="m5030.4 3920.2c-10.93 6.1-21.4 12.92-32.62 20.41 9.63 2.36 20.74 5.63 32.19 9.09-0.41-4.21-0.62-8.49-0.62-12.81 0-5.66 0.36-11.23 1.05-16.7z" fill="#d9d9d9"/>
  <path class="fil0" d="m5671 948.15c-26.05-26.95-50.74-63.7-78.23-89.54-82.52-77.57-186.06-127.44-295.55-58.37-18.72 11.81-33.35 29.67-49.81 38.61 8.76-32.2 41-53.07 61.15-72.02-85.39-4.52-152.65 38.89-209.55 87.39-20.61 17.57-31.59 36.24-48.83 52.5-73.23-22.42-129.38-4.24-170.65 34.88-17.89 16.95-80.53 105.68-79.09 146.76l3.59-131.31c-67.74 71.01-53.36 79.07-82.53 119.7-26.68-12.75-119.73-118.58-148.28-142.43 1.13 32.57 3.39 67.34 7.22 99.99 6.58 56.13 16.8 47.26 35.75 78.3-55.2-18.31-91.25-47.26-156.78-59.25-57.06-10.44-129.04 19.78-156.78 49.67 62.5-25.03 129.04-10.06 182.17 15.76 42.4 20.6 101.98 68.31 115.7 111.19-83.83-4-125.45-6.53-194.41 31.06-56.14 30.6-101.08 68.32-141.76 91.69 0.81 0.57 2.17 0.24 2.63 1.43 0.46 1.18 2.02 1.1 2.67 1.33 24.15 8.8-17.54-3.97 5.53 2.02 31.22 8.09 72.71-0.21 102.44-8.3 16.4-4.46 33-11.38 47.85-17.85 14.81-6.45 32.83-19.16 47.69-22.02-10.96 34.47-67.16 52.72-69.15 129.09-56.93-1.13-110.42 8.19-158.48 27.39-43.05 17.2-91.4 50.28-111.84 77.22 48.88-9.69 56.7-18.24 113.72-10.48-8.03 16.54-58.13 62.26-74.56 83.37-86.86 111.66-123.8 145-184.22 297.89-30.67 77.62-4.72 35.99-60.41 96.75-72.11 78.67-153.3 196.71-166.49 313.78 15.4-10.7 33.94-38.31 50.06-43.24-3.87 14.4-60.89 107.43-73.3 131.53-22.68 44.04-44.8 96.55-59.12 148.97-41.75 152.74-4.32 228.9-16.96 271.76-8.23 27.92-13.87 58.12-18.43 87.65-18.91 122.5-9.65 254.37 22.34 368.12 27.31 97.11 59.86 255.74 40.02 362.31l35.19-20.46c-5.38 17.06-9.09 24.94-10.17 45.96-2 39.08-26.98 66.06-50.17 125.24-51.42 131.24-39.51 275.53-22.18 414.23 8.81 70.55 10.09 143.54 21.65 212.24 29.6 175.89 105.06 353.66 218.15 483.72 29.8 34.27 80.47 73.23 142.84 90.94 31.65 307.01 91.79 600.28 251.91 855.11 34.95 55.63 21.75 38.89 23.42 112.47l9.76 431.36c1.04 41.43-0.33 43.4-11.56 79.59l-124.22 409.18c-15.81 50.74-14.59 55.97 18.03 92.99 70.19 79.63 142.7 156.43 221.39 228.01 86.06 78.3 178.09 148.83 269.89 219.8 366.93 283.7 764.26 401.98 1213.3 260.92 262.69-82.52 483.18-226.34 656.91-410.07 56.41-59.65 109.76-120.01 159.68-194.77 12.58-18.84 22.55-32.56 34.61-53.02 15.52-26.34 17.49-43.66-0.44-66.61-14.45-18.5-24.95-30.74-38.96-48.7-80.2-102.78-72.81-56.56-73.37-195.83-0.24-59.66-1.11-119.63-0.91-179.23 0.1-29.07 41.94-87.99 57.29-117.62 19.98-38.58 35.48-85.78 60.87-118.19 39.13-51.55 75.26-101.1 112.37-154.38 61.38-87.7 120.09-178.17 174.37-271.33 44.23-75.91 83.89-151.43 123.02-235.07 102.72-219.52 127.5-344.02 120.9-590.2-5.92-220.57-36.04-428.96-69.59-641.06-29.2-184.56-93.24-613.66-78.76-801.83 4.58-59.48 8.78-107.44 4.08-168.12-1.8-23.12-8.38-58.45-7.21-79.37 3.02-53.98 14.5-110.42 13.49-165.49-0.57-31.04-6.71-55.85-8.03-83.92l51.2-52.31 0.87 111c35.4-37.57 104.81-222.22 115.69-290.15 10.28-64.22-4.69-119.83-29.67-168.5-23.15-45.1-56.76-87.46-84.39-117.65 20.01 5.7 118.76 54.93 132.22 66.9l18.24 105.08c17.05-17.52 31.92-114.51 35.23-136.16 13.8-90.35 21.84-208.78-24.83-290.59-18.31-32.08-21.02-14.42-24.43-60.57-1.93-26.17-6.24-54.01-5.97-80.29 9.37 10.21 105.57 156.05 107.2 162.17 4.18-44.67-26.64-128.37-43.37-164.26-37.81-81.12-51.24-54.86-30.94-103.58 5.41-13 9.24-27.78 12.19-42.49 32.66-163.29-40.44-372.98-122.54-505.39-30.56-49.28-51.85-51.84-62.74-98.34-36.37-155.3-191.24-241.18-214.21-267.85l151.8 65.97c-53.27-50.85-112.95-103.87-172.25-147.62-284.07-209.58-366.15-120.48-397.22-135.85-105.23-52.04-235.51-64.06-272.29 57.94-18.41-5.18-40.69-18.47-58.56-27.12-33.66-16.28-60.65-53.51-85.24-81.21-7.61-8.58-13.37-15.4-20.14-21.87-12.92-12.36-14.35-8.78-21.24-25.31 65.96 0.94 131.13 23.67 179.65 47.22-9.47-24.6-41.8-50.64-58.8-66.44-81.18-75.43-203.27-74.89-236.5-92.4-121.49-64.03-268.25-29.9-315.44 78.41-18.33 42.07-11.62 67.19-6.35 111.39zm-1238.4 5085.4c117.7 150.07 334.42 343.95 490.34 463.35 108.07 82.76 271.26 183.08 399.33 236.43 340.74 141.93 861.15 227.28 1178.4-39 39.97-33.54 67.28-66.5 104.67-104.24 3.96 45.85-5.63 238.42 6.41 260.55 6.3 11.59 108.49 130.48 118.93 150.84-106.89 262.18-547.22 553.81-826.42 646.46-428.53 142.19-760.57 41.4-1171.3-248.74-106.84-75.47-200.13-155.07-289.39-236.84-67.53-61.87-131.33-134.13-194.52-199.94-33.5-34.89-22.15-33.11-5.74-88.19 40.53-135.98 81.06-268.12 122.6-403.52 21.03-68.54-12.59-401.86-2.89-513.48 21.78 25.92 45.77 46.04 69.51 76.31zm2625.2-2880.3c9.77 49.37 18.37 95.85 26.16 145.71 10.41 66.59 23.19 160.15 27.54 228.12 1.81 28.33-5.47 56.58-2.83 83.94 1.16 16.56 14.08 36.96 19.96 56.1 6.7 21.78 10.51 44.51 11.92 68.2 3.59 60.32-10.82 90-22.61 141.39-3.49 34.67 12.31 140.68 16.7 181.67 13.93 130.04 28.58 225.69 48.97 353.52 40.59 254.4 99.65 616.27 66.98 865.17-40.4 307.85-228.71 568.86-388.08 825.29-33.3 53.58-146.18 198.61-155.35 217.35-38.62 78.92-34.14 92.34-96.16 185.28-25.85 38.72-56.24 74.45-82.96 103.3-43.39 46.84-100.01 85.98-154.86 119.17-147.79 85.73-342.22 102.52-511.07 90.75-183.55-12.8-360.16-57.59-525.86-128.66-169.19-72.57-327-172.53-469.2-293.81-184.86-158.02-382.96-343.13-521.78-541.46-117.53-167.92-195.41-418.08-235.26-659.94-32.28-195.91-33.42-425.63-38.9-629.7-1.39-51.77 0.88-172.37-9.4-215.13l-8.76 261.68c7.42 21.65-2.51 299.43-4.65 345.03-81.24-8.63-174.93-141.97-210.48-212.97-48.07-96.01-89.55-193.65-110.81-313.28l-38.44-383.99c-1.94-135.37 13.93-191.31 68.84-302.72 8.55-15.89 10.64-23.66 22.7-35.28 5.46 62.33 19.36 135.92 45.36 192.73 13.81 30.17 40.21 71.15 64.29 87.78-18.52-64.3-50.82-143.11 16.59-197.19-24.96 194.9 25.88 132.44 46.89 251.83 11.33 64.31 67.4 225.91 107.82 276.21 0.08-249.71 22.44-480.34 75.96-710.56 3.73-10.79 5.3-18.13 8.13-32.39-12.27 4.51-25.67 13.44-35.96 18.84 75.63-94.74 128.15-205.29 133.08-330.96 2.52-64.09-9.63-82.44-21.83-135.29 10.02-15.63 28.8-25.09 59.41-79.91 22.76-40.78 22.93-62.19 30.56-112.02 102.63-37.24 172.03-124.19 221.19-213.57 86.51-157.26 90.82-304.67 105.94-333.76 8.48 37.62 7.89 64.26 32.34 94.47 48.44 59.82 82.91 70.89 171.11 58.28-54.03-17-76.54-18.14-106.45-54.88-30.6-37.58-26.93-80.9-19.76-133.54 15.24 10.41 34.33 29.56 50.76 44.09 120.61 106.67 294.48 185.95 448.1 216.81 96.17 19.31 145.63 19.05 240.73 16.04-147.43-7.15-266.87-53.17-365.46-121.35-95.01-65.71-123.74-99.67-191.85-173.51-12.02-13.03-45.05-52.1-52.99-69.28 13.38 4.4 61.97 38.54 80.08 49.49 181.04 109.43 485.85 194.82 693.28 182.96-125.18-10.78-190.48-26.7-305.89-73.41-82.72-33.48-185.4-102.84-220.11-155.11 17.81 4.76 39.74 15.98 59.73 23.2 101.48 36.61 238.11 68.9 330.31-1.85 27.78-21.32 16.61-9.4 53.34 1.74 29.59 8.98 41.51 6.21 71.21 1.39l-13.59 57.76c209.42-122.11 493.76 6 845.75-123.52 30.15-11.09 73.7-36.63 98.22-42l176.69 236.34c12.35 17.95 22.65 29.99 33.86 46.42 67.14 98.37 128.2 195.06 186.07 303.6 72.53 136.06 95.85 233.33 124.76 379.39z" fill="#0e0e34"/>
  <path class="fil4" d="m6997.8 1657c64.67-60.26 44.01-260.53-8.32-319.64 127.59 80.89 141.76 188.26 156.41 207.78 36.23 48.31 70.61 92.78 102.43 145.01 22.72 37.3 61.49 144.62 77.18 159.43 0.15-180.28-92.53-300.54-187.93-438-121.54-175.11-248.96-276.59-434.15-374.19 17.89 35.6 164.69 173.9 212.63 248.18 85.66 132.71 87.2 193.05 81.76 371.44zm-2653.8 369.76c233.93 27.56 469.23-176.89 485.36-400.96-42.48 32.42-106.75 141.53-171.53 213.89-109.01 121.78-209.22 137.59-313.83 187.07zm506.21-893.58c-122.54 27.26-197.76 149.03-237.67 256.3-3.23-112.65 63.39-177.19 143.31-239.03 6.52-6.36 3.01-1.07 8.54-11.07-141.85 0.35-159.27 130.26-215 213.67l34.42-10.79c-19.78 68.93-105.84 146.45-111.88 158.01 49.72-10.43 100.57-32.62 157.85-43.22-15.93 6.81-177.89 70.46-190.5 83.76 47.41 0.69 95.08-16.55 142.19-17.92l-45.05 11.82c1.09 0.45 1.93 5.35 18.75 6.23-62.99 8.09-116.51 38.69-159.58 74.41-40.44 33.54-120.58 92.08-80.52 148.01 46.14 64.42 167.08-9.1 197.89-46.93-55.56-3.11-92.23 5.42-142.4 8.78 54.86-74.72 255.46-167.06 350.83-122.57 30.51-25.37 146.91-213 177.89-258.49-3.72 24.39-31.44 92.13-39.04 114.8 23.56-21.07 59.85-125.71 60.2-136.8-23.87 130.8-41.95 253.56-89.71 378.91 48.59-38.24 137.22-297.65 188-346.2l-1.74 102.85c25.51-35.1 19.69-131.18 20.06-173.63 69.15-59.19 122.53-127.55 152.7-209.99 34.24-93.59 19.93-189.02 55.38-277.27-135.81 59.16-183.84 216.67-193.14 350.98-49.25-117.05-34.02-95.09 2.83-194.32-91.69 6.2-200.04 151.65-166.59 269.35 15.37 54.11-103.73 227.6-132.69 290.49 6.95-27.68 21.58-59.71 31.14-88.02 47.59-140.94 24.35-98.81 28.65-207.18 0.61-15.49 29.61-62.31 34.87-84.93zm1193 825.3c62.15-57.52 109.49-218.17 119.69-289.65-77.11 75.71-151.69 182.02-223.93 244.27-124.52 107.3-225.09 125.61-333.68 162.98 120.13 12.67 210.44-17.98 298.82-26.89-18.9 7.45-200.67 101.19-207.83 108.02 457.46 121.96 980.02-556.42 671.97-946.9 0.06 0.8 62.22 72.34 114.27 147.09 37.7 54.16 74.12 167.65 80.51 175.74l35.65-266.5c134.35 314.39-125.94 553.71-231.45 778.66 526.28-150.12 448.94-977.61 169.89-1032.4l47.15 156.91c-66.7-51.48-142.32-100.96-232.13-69.31-20.8-45.34-68.65-74.23-118.31-83.59-35.28-6.65-27.19 2.52-49.26-19.29-130.79-129.21-363.85-272.11-458-23.13-6.11 16.17-11.01 38.67-16.94 51.73-14.74-91.54-195.51-212.6-290.12-219.67 19.3 56.46 157.18 125.38 173.76 265.26-29.51-54.03-164.31-220.46-218.12-230.54l60.68 248.44c-38.21-54.09-124.28-173.83-99.42-261.14-83.35 55.92-72.94 257.66-32.33 331.67 8.98-2.31 16.45-3.4 17.53-12.04 2.63 25.58-20.38 16.34 4.93 48.19-35.15 27.6-22.23 6.5-42.37 54.89-26.19 62.89-66.71 141.4-113.49 182.26l115.09-78.44c42.85-35.75 59.48-49.92 91.93-101.7 55.44-88.5 93.54-236.94 112.42-268.62l3.62-5.11c78.98 308.01-82.97 493.01-343.4 642.43 23.33-78.07 124.61-184.53 137.63-210.93-78.72 16.99-164.48 67.01-215.04 120.61 9.24-55.52 44.57-116.01 66.25-169.5-43.92 27.78-130.13 164.17-142.89 215.17-8.06 32.16-24.6 66.54-29.86 92.46 37.92-29.11 65.59-68.78 101.54-101.24 17.39-15.7 104.27-82.43 108.42-88.5-70.41 174.88-210.94 216.51-288.18 316.38 46.8-18.48 207.6-89.94 222.13-137.1-134.88 240.69-258.81 294.36-381.95 367.13 151.21-4 315.24-144.99 395.22-263.85 15.4-22.89 29.74-42.5 44.06-65.32 9.98-15.89 50.26-31.82 69.82-43.4 105.43-62.42 157.41-90.1 259.01-183.2 70.81-64.89 152.87-193.92 147.44-290.95 8.8 110.04 1.69 170.56-38.93 262.07 25.48-14.4 71.33-69.27 97.85-94.83-40.82 78.19-93.41 147.81-149.27 213.75-93.3 110.13-190.4 158.41-200.57 170.46 84 15.13 156.89-16.06 211.73-49.48 208.85-127.31 177.48-404.03 182.02-614.88 3.89 26.05 72.3 148.88 88.11 237.42 22.04 123.36 30.09 264.52 31.32 266.55 44.98-160.53 76.81-315.59-3.76-483.42 66.66 8.74 101.38 208.73 150.35 241.56 1.75-81.25-19.95-119.62-33.57-188.29 25.65 6.47 133.25 151.37 172.62 182.02 5.09-23.63-122.18-209.89-142.67-242.83 40.72 6.99 74.93 36.49 105.24 47.68-10.71-46.79-77.68-138.21-112.66-174.47 209.58 104.4 372.39 434.16 304.83 651.06-22.24 71.37-184.21 353.87-263.35 354.26zm-1951.8 361.17c12.5-26.28 69.81-148.06 72.42-170.55-187.89 21.3-454.11 228.08-451.86 425.74 50.18-82.13 48.52-136.69 148.79-199.86-49.14 54.1-89.83 122.65-113.23 208.57-15.44 56.71-13.53 84.64-18.33 147.12-0.36 4.63-39.84 85.35-47.31 112.54-19.61 71.3-17.54 174.91-11.91 276.87 5.74 103.89 27.61 206.08 71.7 270.59-20.1-76.17-38.7-166.81-43.54-271.9-6.8-147.77 27.47-199.81 39.39-316.08 17.44-170.21 97.37-361.28 220.24-466.71-32.21 22.31-87.21 62.48-118.84 79.32 76.14-80.53 172.99-189.63 283.06-221.13-59.24 109.19-245.06 414.09-255.6 431.09 59.53-23.84 182.64-218.27 229.26-285.39-9.06 218.57-57.42 210.64-117.04 365.63 32.9-15.39 75.15-72.78 106.69-82.96l-26.49 134.87c82.33-34.39 118.22-297.72 122.91-383.47l9.2 58.88c11.1-14.38 9.16-51.36 13.81-71.32 7.78 81.76 6.36 194.64 22.32 268.33 40.39-67.02 41.17-211.29 39.13-289.24 104.83 178.52 27.25 245.48 41.92 386.52 53.83-82.75 111.71-205.51 167.56-276.67 8.44 13.52-49.61 245.26-54.61 288.87 79.03-111.18 134.46-312.93 146.04-446.26l1.07 138.69c21.06-32.92 16.37-236.65-8.71-264.75-17.07 41.83-19.83 153.35-32.67 172.98l-13.54-22.39c-7 8.25-12.8 31.84-16.47 43.07-1.61-16.86-13.48-151.09-25.43-165l-66.54 173.3c6.28-33.27 26.74-104.1 0.51-130.31-5.39 20.1-29.48 68.54-41.83 83.67-2.82-16.89-5.49-66.07-15.41-78.98-1.51 14.06-11.48 63.45-14.93 71.76l-73.86-156.3c-16.71 16.72-22.79 95.26-35.13 124.32l-23.57-116.94c-2.06 1.76-108.01 151.35-109.18 153.47zm-256.07-105.16c57.13-125.61 208.34-202.64 343.29-201.72-61.76-115.34-350.17 28.53-343.29 201.72zm106.4 591.82c-5.58 26.81 51.72 242.68 17.81 366.33-1.88-40.93-20.36-239.19-60.35-266.75-31.45 46.55-15.6 263.67-28.38 344.56 2.47-7.22-31.1-113.65-37.4-125.07-7.63 24.99-5.3 145.93-12.41 194.43-8.73 59.62-19.46 110.99-27.94 175.34 17.28-15.47 70.83-129.38 82.1-163.89-26.79 116.41-3.61 292.24 50.52 379.25 0.43-76.86-27.29-156.43-28.88-227.93l23.99 59.76c42.02-128.14 39.66-359.16 93.18-470.87l5.53 81.54c7.1-7.35 10.64-17.47 15.06-26.57l-10.22 298.5c69.98-90.03 37.63-301.1 72.4-401.98 97.34 168.1 10.66 378.9-11.77 546.56 52.41-53.16 116.91-367.37 114.83-455.22-3.76-159.28-115.17-261.17-258.08-307.99zm3278.2 180.74c5.42-5.67 1.2 2.84 6.64-10.22 1.8-4.32 1.86-5.98 3.03-11.79 12.94-64.5 13.33-134.96 1.54-200.04-19.81-109.26-48.51-126.13-71.03-178.74-6.15 6.05-8.33 1.47-9.77 31.29-0.63 12.98-1.03 24.96-2.18 37.78-2.17 24.23-2.24 48.91-3.19 73.3l-18.8-16.52-5.33 16.49c-15.37-52-29.13-48.7-66.09-101.9-11.58-16.67-21.47-33.02-31.11-52.74-14.04-28.72-16.02-52.33-27.95-64.98-4.52 177.87 46.61 264.39 142.56 384.48 27.14 33.96 56.06 62.93 81.68 93.59zm-100.4-1047.1 160.04 79.98c2.01-66.63-54.13-127.63-94.86-148.68-35.07-18.12-184.65-35.24-203.38-4.59 163.39 90.99 214.07 255.87 312.7 393.02 0.13-116.9-100.26-238.2-174.5-319.73z" fill="#36366b"/>
  <path class="fil3" d="m3864.5 4000.2c-26.76 69.12-90.15 333.72-52.14 397.3 0.59-77.06 51.3-380.67 109.57-436.04-7.44-11.69-14.17-22.41-18.27-40.06-6.87 9.25-15 24.83-22.11 39.84 2.77 9.28 5.57 18.39 8.12 27.22-4.87-3.36-9.83-7.72-14.76-12.78-5.1 11.41-9 20.88-10.41 24.52z" fill="#d9d9d9"/>
  <path class="fil0" d="m5308.2 3974.5c-45.46 3.75-79.93 3.74-127.42 2.96-24.54-2.12-62.53-4.65-93.42-11.45-24.94-5.49-62.94-18.9-89.55-25.44 35-23.38 62.77-40.21 119.68-49 93.71-14.46 178.85-2.36 247 69.55-11.82 10.2-42.03 11.52-56.29 13.38zm-184.79-140.69c-58.43-1.01-113.27 5.39-167.31 19.12-51.27 13.03-143.24 43.41-168.78 82.45 35.13-24.07 130.75-54.54 182.17-65.09 82.42-16.92 140.39-16.7 223.09-8.77-125.09 2.53-173.99 17.08-292.87 70.36-42.18 18.91-81.76 36.85-122.87 56.24l-116.01 59.67c84.71-6.84 212.59-74.65 308.57-83.11 30-2.65 54.05 2.06 116.72 12.79 24.58 4.21 49.75 7.35 75.21 9.46 51.75 4.28 103.96 4.33 155.75 0.47 26.32-1.96 50.64-10.42 71.11 2.09 38.02 23.24 74.93 31.56 127.05 34.86-13.15-13.09-78-38.86-130.6-78.85-32.41-24.64-85.78-62.82-129.37-73.33 62.05 5.32 161.59 50.35 217.94 83.45 20.32 11.94 17.78 11.91 26.4 13.68-12.85-11.99-18.86-18.87-36.71-32.63-45.53-35.11-78.5-48.59-118.45-64.2-67-26.19-137.32-37.21-221.04-38.65z" fill="#0e0e34"/>
  <path class="fil0" d="m6403.4 3955.8c-0.59-17.2 10.07-22 20.2-31.17 40.16-36.31 105.79-60.74 157.84-64.22 37.65-0.35 149.49 19.28 187.61 55.45l-48.88 10.41-18.08 2.97-79.35 11.01-6.87 1.33-30.79 2.69-23.96 0.8-70.63 2.9c-25.41 0.26-32.89-1.16-58.47 3.09l-28.63 4.76zm-73.2-14.76c39.5-24.54 73.22-48.65 120.5-56.84-45.59 25.96-51.08 47.26-69.44 60.23-29.17 20.61-60.69 29.81-72.76 57.37 58.08-14.74 82.96-43.2 152.3-39.27 60.08 3.4 125.22-2.28 184.63-9.2 33.89-3.95 145.11-26.24 166.25-21.02 57.64 14.24 116.41 11.09 157.22-20.95-75.64 4.3-164.62-26.96-244.31-45.32-25.26-5.82-56.98-9.08-80.66-15.72 114.47-15.71 173.14-11.34 275.43 35.64-47.85-83.54-197.63-71.38-277.62-61.17-38.77 4.95-77.9 12-114.53 20.93-84.92 20.69-139.18 34.54-197 95.31z" fill="#0e0e34"/>
  <path class="fil5" d="m5276.3 5551.6c-19.39-12.76-39.18-31.37-57.37-41.27-19.63-10.69-51.94-17.05-65.6-32.27 20.12-78.54 283.69-46.89 363.43-38.81 130.36 13.21 265.93 28.27 395.85 34.94 139.7 7.17 270.53 4.68 405.96-13.56 31.43-4.23 60.8-8.95 91.21-15.13 44.19-8.98 42.65-16.7 72.44-37.35 46.83-32.45 111.29-51.84 149.54-0.9-59.2-4.42-36.99-5.67-74.75 24.38-104.07 82.82-43.29 40.4-91.41 124.33-64.9 113.22-195.78 174.95-347.09 197.06-135.09 19.74-268.02 9.19-397.44-18.04-58.08-12.21-114.19-28.07-167.93-47.43-50.02-18.02-111.15-43.26-159.46-66.82-37.33-18.2-84.35-50.26-117.37-69.15zm255.33-198.04c-57.88 11.49-133.56 39.34-187.64 59.98-31.87 12.17-77.76 0.28-114.7 2.36-44.99 2.53-109.2 16.72-139.82 53.76-10.59 12.81-20.19 28.33-23.94 49.76 42.06-3.33 97.24 1.43 128.36 20.76 14.68 2.99 58.75 87.38 72.98 105.07 18.1 20.32 86.97 89.09 95.88 105.08-13.51-41.59-73.39-108.35-99.01-154.81 24.96 10.53 76.6 42.71 124.77 63.44 47.07 20.26 89.67 35.99 141.03 52.89 215.67 70.95 442.43 96.74 664.94 44.49 108.65-25.51 185.15-65.7 268.59-112.81-66.89 180.12-184.97 232.95-337.46 312.11 58.01 2.06 185.99-48.16 228.44-72.93 97.46-56.85 164.05-135.14 199.13-242.91 8.89-27.31 15.11-54.82 19.04-83.88 1.99-14.76 3.96-62.78 6.61-70.59 5.5-16.27 20.07-22.84 30.89-40.26 22.38 0.72 59.19 7.13 79.16 2.43l-27.07-38.93c-65.29-85.87-128.57-24.68-139.59-36.56-79.54-16.4-241.72-76.46-306.14-51.87 47.69 10.35 95.44 37.33 134.02 56.74-80.24 49-325.02 69.94-422.51 66.59-74.68-2.57-401.06-20.01-450-42.91 9.5-7.39 18.4-14.48 28.09-22.57 8.22-6.86 21.66-14.6 25.97-24.45z" fill="#8c8c8c"/>
  <path class="fil0" d="m6332.6 5614c-13.83 22.95-15.89 38.7-43.58 50.44-20.43 8.66-46.38 10.33-64.09 8.6-36.48 37.5-129.45 52.85-173.37 42.15-11.37-2.72-22.17-6.06-31.08-9.17-34.44 12.2-53.66 22.39-91.27 27.36-31.81 4.22-45.46 5.04-63.05 3.01-31.89-3.67-57.54-19.07-91.58-57.21-84.45 47.87-105.39 30.31-183.4-28.6-23.2 11.86-49.2 28.07-75.84 16.31-23.76-10.5-16.63-9.55-31.83-22.54-8.29-7.09-13.77-18.81-19.72-30.88-18.37 6.47-28.09 10.12-36.31 10.74-22.73 1.72-46.47-17.7-59.67-34.66-9.53-12.25-17.4-26.16-21.84-39.19-31.32 6.4-44.74 2.6-58.79-20.62-9.39-15.53-19.81-43.04-22.63-62.68 33.01-17.29 210.19-9.72 249.92-8.28 132.99 4.81 263.86 27.6 396.56 36.09 115.35 7.39 234.1 4.5 373.52-10.88 47.9-5.28 96.57-16.47 145.22-22.56-9.43 37.74-32.09 202.98-97.16 152.57zm-779.48 73.53c53.74 19.35 109.85 35.21 167.93 47.43 129.42 27.22 262.35 37.78 397.44 18.04 151.31-22.11 282.19-83.84 347.09-197.06 48.12-83.94-12.65-41.51 91.41-124.33 37.76-30.06 15.56-28.8 74.75-24.38-38.25-50.94-102.71-31.56-149.54 0.9-29.79 20.64-28.25 28.36-72.44 37.35-30.41 6.18-59.78 10.9-91.21 15.13-135.43 18.24-266.26 20.74-405.96 13.56-129.93-6.67-265.49-21.73-395.85-34.94-79.74-8.08-343.3-39.73-363.43 38.81 13.66 15.22 45.97 21.58 65.6 32.27 18.19 9.91 37.98 28.51 57.37 41.27 33.02 18.89 80.04 50.95 117.37 69.15 48.31 23.56 109.44 48.8 159.46 66.82z" fill="#0e0e34"/>
 </g>
</svg>
